<?xml version="1.0" standalone="no"?>
<!DOCTYPE svg PUBLIC "-//W3C//DTD SVG 20010904//EN"
 "http://www.w3.org/TR/2001/REC-SVG-20010904/DTD/svg10.dtd">
<svg version="1.0" xmlns="http://www.w3.org/2000/svg"
 width="746.000000pt" height="746.000000pt" viewBox="0 0 746.000000 746.000000"
 preserveAspectRatio="xMidYMid meet">
<metadata>
Created by potrace 1.11, written by Peter Selinger 2001-2013
</metadata>
<g transform="translate(0.000000,746.000000) scale(0.100000,-0.100000)"
fill="#000000" stroke="none">
<path d="M4628 7443 c-8 -10 -36 -61 -61 -115 -51 -110 -114 -211 -175 -281
-48 -55 -50 -65 -22 -95 63 -67 156 28 292 300 33 66 61 132 61 146 0 28 -34
62 -63 62 -9 0 -24 -8 -32 -17z"/>
<path d="M3515 7320 c-77 -4 -198 -15 -270 -23 -71 -9 -175 -21 -229 -27 -111
-13 -243 -45 -266 -64 -8 -7 -86 -36 -172 -64 -802 -264 -1504 -822 -1933
-1537 -351 -583 -521 -1239 -502 -1930 14 -479 101 -871 296 -1335 27 -63 64
-153 81 -200 239 -622 730 -1189 1366 -1575 478 -290 1010 -471 1594 -541 179
-22 620 -25 785 -6 414 49 781 153 1098 311 88 44 93 48 107 92 33 98 115 196
253 298 121 89 146 100 266 115 68 9 131 24 157 37 50 24 311 289 349 354 13
22 33 77 44 122 33 134 100 247 206 344 46 43 65 85 65 149 0 51 51 189 101
272 38 64 109 144 207 230 40 36 63 99 107 299 74 331 95 495 102 794 7 318
-21 592 -94 900 -28 122 -37 145 -57 145 -9 0 -23 40 -41 120 -18 77 -35 126
-47 137 -13 11 -37 17 -81 17 -52 1 -71 -4 -118 -31 -56 -32 -57 -32 -74 -12
-10 10 -26 19 -35 19 -39 0 -180 43 -249 75 -184 88 -357 261 -466 469 -51 95
-76 178 -105 339 -36 208 -80 295 -220 441 -222 231 -380 279 -755 231 -151
-19 -280 -19 -369 0 -56 11 -85 12 -147 3 -107 -15 -147 1 -253 102 -45 42
-102 88 -128 103 -53 31 -79 68 -102 146 -21 72 -20 110 4 178 11 32 20 67 20
79 0 20 -74 214 -135 351 -15 34 -35 64 -44 67 -37 10 -185 13 -316 6z m93
-367 l11 -248 26 -23 c38 -32 58 -23 137 61 l67 72 1 -60 c0 -33 5 -78 10
-100 l9 -40 -88 -90 c-49 -49 -99 -110 -112 -135 l-22 -45 12 -304 c7 -168 17
-313 22 -323 13 -24 46 -40 69 -33 14 4 213 213 375 393 10 11 16 -4 28 -70 9
-46 19 -92 22 -103 4 -16 -43 -73 -221 -265 -124 -135 -233 -258 -241 -275
-13 -24 -14 -50 -9 -140 3 -60 11 -198 16 -305 12 -214 19 -240 68 -240 16 0
35 6 44 13 42 33 511 552 520 575 10 26 5 237 -9 377 l-5 60 37 -35 c54 -51
126 -144 179 -232 26 -42 70 -97 97 -122 l51 -46 -55 -60 c-36 -39 -58 -72
-62 -94 -4 -19 -1 -167 7 -329 12 -264 16 -298 32 -316 11 -12 31 -21 47 -21
23 0 65 41 271 263 134 144 250 261 258 260 24 -2 244 -86 251 -95 3 -4 10
-130 17 -278 6 -152 16 -279 22 -291 13 -23 46 -38 71 -32 9 3 85 80 169 171
84 92 157 168 161 170 11 5 150 -80 147 -90 -2 -4 -113 -128 -248 -274 -135
-147 -252 -276 -260 -288 -8 -12 -14 -44 -14 -81 -1 -80 23 -521 30 -562 6
-38 47 -65 79 -53 34 13 528 557 543 598 11 30 12 61 3 157 -6 66 -14 199 -17
295 l-7 175 106 -3 105 -3 7 -167 c3 -92 9 -180 11 -195 8 -37 48 -63 79 -51
23 9 406 418 425 455 6 11 8 28 5 38 -4 15 4 23 37 39 67 32 80 31 90 -3 17
-61 57 -274 73 -390 23 -164 31 -565 16 -736 -22 -241 -97 -616 -148 -737 -8
-20 -54 -77 -103 -127 -134 -138 -193 -242 -231 -404 -28 -117 -39 -140 -96
-203 -105 -116 -164 -229 -193 -368 -15 -73 -20 -85 -36 -82 -85 15 -70 24
-202 -120 -102 -111 -122 -138 -122 -164 0 -39 -8 -42 -120 -55 -112 -12 -196
-53 -321 -157 -129 -108 -207 -194 -241 -269 -34 -71 -45 -79 -198 -148 -293
-132 -582 -216 -920 -266 -195 -29 -602 -37 -807 -15 -464 49 -840 159 -1243
361 -342 172 -609 371 -896 667 l-141 146 -6 92 c-4 51 -7 119 -7 150 0 62
-17 93 -57 105 -18 5 -33 -4 -73 -41 -28 -26 -52 -45 -54 -43 -17 21 -132 201
-168 264 -228 400 -371 829 -440 1315 -20 147 -17 670 5 828 31 219 74 410
135 599 22 71 28 81 43 72 40 -21 58 -8 224 173 92 100 174 192 182 205 14 21
14 47 3 242 l-13 219 79 106 c44 58 82 106 85 106 4 0 10 -66 14 -147 17 -357
20 -395 40 -409 50 -37 59 -29 326 262 140 151 260 286 267 299 16 32 17 66 3
330 -6 121 -11 234 -11 250 0 27 10 37 95 94 53 35 98 61 101 58 3 -2 9 -108
15 -233 5 -126 12 -244 15 -262 6 -41 45 -69 79 -56 13 5 116 110 231 234 114
124 229 247 255 273 27 26 52 59 55 72 3 13 4 85 2 160 l-3 135 80 29 c44 16
94 32 111 35 29 7 32 5 38 -25 3 -17 6 -62 6 -100 0 -78 19 -109 67 -109 28 0
29 1 236 227 l102 111 80 12 c107 15 236 27 311 29 l60 1 12 -247z m161 123
c17 -24 28 -45 26 -48 -3 -2 -9 -28 -15 -58 -12 -61 -28 -89 -41 -68 -9 13
-13 218 -4 218 2 0 18 -20 34 -44z m-849 26 c0 -5 -13 -21 -30 -37 l-30 -29 0
31 c0 17 6 34 13 36 20 9 47 8 47 -1z m-536 -278 l7 -75 -53 -58 c-29 -31
-114 -123 -188 -204 -74 -81 -138 -147 -142 -147 -5 0 -8 20 -8 43 0 24 -3
104 -6 178 l-7 134 124 72 c109 63 242 131 260 133 3 0 9 -34 13 -76z m1600
-497 c42 -65 76 -123 76 -129 0 -10 -247 -280 -262 -286 -5 -2 -8 9 -8 25 0
15 -5 109 -10 207 l-9 180 62 66 c34 37 65 64 69 61 4 -3 41 -59 82 -124z
m-2435 -237 l1 -105 -188 -203 -187 -203 -6 63 c-4 35 -7 124 -8 199 l-1 136
49 75 c28 44 107 133 187 214 l138 139 7 -105 c4 -58 7 -152 8 -210z m2789 82
c43 -13 68 -14 135 -5 64 7 96 6 147 -5 86 -19 237 -19 385 2 313 42 448 5
625 -174 139 -139 170 -202 220 -448 16 -81 39 -171 50 -201 53 -139 149 -288
257 -402 134 -141 254 -220 422 -280 117 -42 116 -42 -49 -45 -58 0 -142 -4
-188 -9 -131 -12 -230 15 -349 96 -23 16 -44 37 -47 47 -3 9 -32 29 -63 44
-32 15 -100 52 -152 82 -51 30 -164 82 -250 116 -189 75 -238 100 -271 135
-14 15 -64 51 -113 81 -48 30 -124 82 -169 115 -74 55 -85 60 -118 54 -34 -6
-41 -2 -81 37 -25 24 -60 70 -78 102 -59 102 -185 252 -245 290 -55 35 -76 60
-76 92 0 10 -12 30 -26 45 -26 27 -26 25 -48 222 -4 33 -2 37 12 31 10 -4 41
-14 70 -22z m-114 -662 l6 -205 -188 -202 c-218 -235 -195 -239 -206 35 l-8
180 189 205 c103 112 191 202 194 198 4 -3 9 -98 13 -211z m-3475 -128 l1 -74
-77 -85 c-43 -46 -79 -80 -81 -75 -4 13 37 118 94 241 54 117 62 116 63 -7z
m4104 -173 c42 -22 217 -152 217 -162 0 -5 -78 -92 -172 -194 l-173 -186 -6
119 c-4 65 -8 160 -10 210 l-3 92 58 66 c32 36 60 66 63 66 2 0 14 -5 26 -11z
m887 -496 c19 -8 37 -17 39 -19 2 -2 -36 -47 -85 -100 l-89 -97 -7 39 c-4 22
-7 85 -7 141 l-1 103 58 -26 c31 -14 73 -33 92 -41z m920 -238 c0 -7 -151
-169 -162 -173 -4 -2 -8 30 -8 72 0 85 -10 75 100 94 30 5 58 10 63 11 4 0 7
-1 7 -4z m-620 -464 l2 -114 -188 -206 -189 -205 -6 75 c-3 41 -8 136 -10 211
l-4 136 190 208 190 207 6 -99 c4 -54 8 -150 9 -213z m1150 -877 c-22 -198
-56 -374 -112 -568 l-32 -109 -92 -98 c-109 -115 -185 -234 -219 -342 -14 -43
-25 -84 -25 -91 0 -46 -36 -121 -82 -173 -114 -129 -190 -279 -205 -401 l-6
-57 -141 -143 c-164 -167 -198 -187 -328 -201 -108 -11 -183 -44 -293 -131
-133 -106 -228 -209 -266 -288 l-34 -70 -115 -55 c-644 -311 -1444 -376 -2231
-182 -408 101 -793 267 -1142 492 -53 34 -97 64 -97 67 0 2 48 -25 108 -61
122 -73 369 -197 487 -244 484 -192 1003 -278 1505 -249 416 25 769 102 1125
245 144 58 345 156 362 177 6 7 16 31 22 54 24 91 110 182 284 302 100 69 146
86 267 102 99 14 139 28 194 74 23 18 71 43 109 55 77 26 92 45 83 103 -6 36
-3 42 42 91 63 66 73 86 82 163 14 111 84 235 203 361 58 61 59 63 67 136 19
163 111 329 258 464 73 67 93 92 106 130 18 55 88 374 106 481 7 40 14 71 16
69 3 -2 0 -49 -6 -103z"/>
<path d="M3053 6810 c-142 -155 -264 -293 -272 -308 -12 -22 -12 -67 -2 -287
15 -332 18 -362 42 -386 30 -30 58 -23 103 24 185 193 489 532 497 555 8 19 8
84 0 232 -7 113 -14 251 -17 308 -5 87 -9 106 -27 123 -44 40 -52 34 -324
-261z m240 -190 l6 -175 -184 -200 c-101 -110 -188 -201 -193 -203 -6 -2 -13
84 -17 203 -7 195 -6 207 12 228 11 12 95 105 188 206 l170 184 6 -34 c4 -19
9 -113 12 -209z"/>
<path d="M2193 6100 c-142 -154 -264 -295 -272 -313 -11 -26 -11 -64 -2 -212
6 -99 13 -235 17 -303 7 -137 18 -164 69 -164 21 0 39 10 64 38 19 22 134 146
256 278 121 131 225 248 232 261 7 12 13 37 14 56 2 28 -13 353 -25 546 -3 62
-26 93 -67 93 -24 0 -67 -42 -286 -280z m245 -280 l1 -85 -187 -203 -187 -204
-6 44 c-3 24 -9 117 -13 209 l-7 165 193 209 193 210 6 -130 c4 -72 7 -168 7
-215z"/>
<path d="M3105 5858 c-138 -149 -258 -284 -268 -300 -22 -33 -22 -45 -4 -400
14 -282 18 -298 78 -298 24 0 66 41 285 278 141 152 263 293 271 312 14 30 14
57 5 200 -7 91 -14 226 -18 300 -7 155 -16 180 -67 180 -29 0 -54 -24 -282
-272z m238 -215 l5 -153 -191 -207 -192 -208 -6 120 c-4 66 -8 162 -9 212 l-3
93 189 205 189 206 6 -58 c4 -32 9 -127 12 -210z"/>
<path d="M1638 5648 c-8 -7 -128 -136 -267 -286 -197 -214 -253 -281 -261
-312 -7 -27 -8 -72 -1 -142 5 -57 13 -185 17 -285 3 -103 11 -191 18 -204 18
-36 60 -47 87 -23 68 60 514 555 527 584 13 30 13 55 4 170 -7 74 -14 209 -18
300 -5 148 -8 167 -27 188 -23 24 -55 29 -79 10z m-6 -508 l3 -124 -184 -201
c-102 -110 -188 -201 -193 -203 -4 -2 -8 16 -9 40 0 24 -4 117 -8 207 l-8 165
191 208 191 207 7 -87 c3 -48 8 -143 10 -212z"/>
<path d="M2239 5074 c-140 -152 -260 -288 -268 -303 -18 -32 -18 -62 -3 -346
15 -291 17 -303 38 -326 42 -47 55 -37 325 257 139 152 260 286 268 297 19 27
19 76 2 402 -14 279 -18 295 -75 295 -30 0 -52 -21 -287 -276z m242 -236 l4
-127 -190 -206 -190 -207 -6 93 c-4 52 -8 147 -10 211 l-4 116 190 208 190
207 6 -84 c4 -46 8 -141 10 -211z"/>
<path d="M3212 4958 c-307 -331 -344 -372 -354 -398 -7 -17 -6 -103 1 -265 16
-345 20 -381 39 -398 26 -22 46 -26 68 -13 32 17 524 556 536 585 6 16 8 72 4
146 -4 66 -11 205 -16 309 -11 207 -17 226 -71 226 -23 0 -57 -31 -207 -192z
m162 -261 l6 -188 -187 -203 c-103 -113 -191 -200 -194 -194 -4 6 -10 100 -14
208 l-7 198 188 205 c160 172 190 201 195 183 3 -12 9 -106 13 -209z"/>
<path d="M4035 4723 c-141 -153 -264 -292 -272 -309 -14 -29 -14 -62 0 -335 8
-167 18 -311 22 -320 9 -23 49 -42 71 -35 25 8 513 537 538 583 18 33 18 45 7
251 -23 416 -21 402 -42 423 -43 43 -53 34 -324 -258z m238 -193 l6 -175 -184
-200 c-101 -110 -188 -201 -193 -203 -8 -2 -22 224 -22 358 l0 58 187 202 188
203 6 -34 c4 -19 9 -113 12 -209z"/>
<path d="M814 4854 c-25 -10 -390 -417 -411 -458 -47 -91 -72 -358 -53 -570 6
-71 15 -137 21 -148 12 -22 57 -34 78 -21 27 16 451 476 467 507 13 23 15 49
11 125 -3 53 -10 193 -16 311 -11 212 -11 215 -36 238 -26 22 -39 25 -61 16z
m-23 -506 l3 -137 -136 -148 c-75 -81 -148 -159 -163 -173 l-28 -25 6 160 c7
180 22 289 44 324 8 13 70 82 137 154 l121 130 6 -74 c4 -41 8 -136 10 -211z"/>
<path d="M5162 4703 c-52 -47 -503 -546 -518 -574 -15 -30 -15 -49 -6 -198 7
-91 14 -229 18 -305 6 -129 8 -141 31 -163 14 -15 32 -23 46 -21 27 4 545 562
555 598 8 31 8 56 -10 379 -14 255 -15 264 -37 282 -29 24 -53 24 -79 2z m-9
-355 c4 -79 7 -173 7 -210 l0 -68 -182 -199 c-101 -110 -186 -200 -190 -200
-8 -1 -17 126 -20 290 l-3 125 185 202 c102 111 188 202 191 202 3 0 9 -64 12
-142z"/>
<path d="M1443 4370 c-142 -154 -264 -295 -272 -313 -11 -26 -11 -63 -2 -202
6 -93 13 -228 17 -300 4 -86 11 -138 20 -152 18 -28 63 -31 92 -5 64 55 513
557 519 579 3 15 1 131 -6 258 -6 126 -11 260 -11 296 0 79 -23 119 -70 119
-25 0 -64 -38 -287 -280z m61 -564 l-189 -206 -6 53 c-4 28 -10 122 -13 208
l-7 156 193 209 193 208 9 -211 8 -212 -188 -205z"/>
<path d="M2542 4333 c-11 -10 -133 -141 -271 -291 -190 -208 -252 -282 -257
-307 -3 -18 -1 -99 5 -181 6 -82 13 -213 17 -292 5 -120 9 -146 26 -167 40
-52 49 -44 329 258 143 155 265 292 270 305 13 34 13 79 1 317 -7 121 -14 247
-15 279 -3 47 -8 63 -26 77 -29 24 -53 24 -79 2z m-12 -265 c0 -29 3 -123 6
-208 l7 -155 -188 -203 c-103 -112 -189 -201 -192 -199 -2 3 -8 95 -14 206
l-10 202 188 204 c103 113 191 205 196 205 4 0 7 -24 7 -52z"/>
<path d="M6628 4059 c-117 -127 -219 -245 -227 -262 -10 -24 -12 -56 -6 -127
4 -52 12 -188 18 -301 10 -179 15 -210 31 -228 43 -47 59 -36 272 195 109 119
202 221 205 228 4 6 8 165 10 354 4 331 3 344 -15 358 -51 37 -62 28 -288
-217z m174 -182 c-3 -98 0 -188 6 -209 l10 -37 -136 -147 -137 -148 -6 109
c-4 61 -8 156 -10 212 l-4 101 134 146 c73 80 136 146 140 146 3 0 5 -78 3
-173z"/>
<path d="M3432 4153 c-11 -10 -130 -138 -265 -284 -163 -178 -249 -279 -256
-302 -9 -27 -10 -71 -2 -174 6 -76 13 -210 17 -297 6 -149 8 -161 30 -183 13
-13 30 -23 38 -23 24 0 60 36 311 309 162 176 244 273 253 298 11 30 11 61 3
148 -6 61 -13 192 -17 293 -6 160 -9 186 -26 207 -23 29 -58 32 -86 8z m-3
-510 l1 -122 -132 -143 c-187 -204 -240 -259 -243 -256 -2 2 -8 94 -14 206
l-11 203 192 210 193 210 6 -93 c4 -51 7 -148 8 -215z"/>
<path d="M4344 3964 c-18 -8 -517 -553 -533 -582 -12 -22 -12 -63 -2 -262 17
-360 21 -390 42 -411 45 -45 44 -46 372 312 187 204 227 253 233 285 4 21 2
112 -5 203 -6 91 -11 204 -12 251 -1 175 -27 232 -95 204z m-21 -449 l6 -190
-186 -203 c-122 -131 -189 -198 -194 -190 -4 7 -10 101 -13 208 l-7 195 187
203 c151 164 189 200 194 185 4 -10 10 -103 13 -208z"/>
<path d="M699 3693 c-90 -98 -205 -221 -256 -274 -50 -53 -95 -108 -99 -123
-19 -76 41 -339 108 -474 40 -81 45 -87 76 -90 30 -3 40 4 115 85 45 48 133
140 196 204 62 64 121 129 130 145 18 34 19 119 2 334 -6 80 -11 184 -11 231
0 100 -19 139 -69 139 -24 0 -55 -29 -192 -177z m6 -622 c-81 -88 -152 -158
-156 -155 -14 8 -50 133 -68 238 l-18 98 186 201 186 201 9 -212 8 -211 -147
-160z"/>
<path d="M4952 3485 c-139 -152 -260 -288 -269 -303 -15 -26 -15 -55 -1 -340
16 -342 19 -352 79 -352 24 0 67 42 285 278 141 152 263 293 272 312 13 30 13
60 3 220 -6 102 -13 239 -17 305 -6 134 -16 155 -68 155 -28 0 -58 -30 -284
-275z m242 -202 l5 -161 -136 -149 c-190 -207 -245 -264 -248 -261 -2 2 -6 98
-10 213 l-6 210 188 203 188 202 6 -47 c4 -27 9 -121 13 -210z"/>
<path d="M1697 3603 c-178 -186 -460 -501 -469 -523 -10 -26 6 -520 20 -609 9
-57 46 -88 83 -70 35 17 521 551 538 591 11 27 12 64 2 218 -6 102 -13 237
-17 300 -6 130 -18 160 -63 160 -22 0 -43 -15 -94 -67z m47 -410 l5 -163 -187
-204 c-103 -112 -190 -205 -193 -205 -4 -1 -10 93 -14 208 l-7 209 188 205
189 204 6 -46 c4 -25 9 -119 13 -208z"/>
<path d="M5843 3279 c-142 -154 -264 -294 -272 -312 -11 -26 -11 -64 -2 -207
6 -96 14 -233 17 -303 8 -152 19 -173 84 -168 18 1 517 539 539 580 17 31 17
60 -1 393 -12 224 -16 260 -33 278 -44 48 -55 40 -332 -261z m245 -264 l2
-100 -188 -204 -187 -203 -6 48 c-3 27 -9 121 -13 209 l-7 160 193 210 193
209 6 -114 c4 -63 7 -160 7 -215z"/>
<path d="M2561 3313 c-180 -191 -468 -509 -479 -529 -16 -30 -16 -67 1 -392
16 -287 20 -302 77 -302 23 0 70 46 286 281 142 154 265 295 273 312 11 27 11
63 2 212 -6 99 -14 237 -17 308 -6 121 -7 128 -31 147 -14 11 -33 20 -41 20
-9 0 -41 -26 -71 -57z m32 -433 l6 -155 -184 -200 c-101 -110 -188 -201 -193
-203 -9 -3 -22 206 -22 342 l0 71 188 204 187 203 6 -53 c4 -30 9 -124 12
-209z"/>
<path d="M6855 3250 c-11 -4 -67 -59 -125 -121 -58 -63 -144 -155 -192 -206
-103 -109 -107 -124 -88 -296 17 -144 28 -157 129 -157 l69 0 49 54 c68 77
137 196 197 338 49 119 51 126 49 212 -2 125 -9 153 -41 170 -16 8 -35 11 -47
6z m-70 -306 c-34 -129 -174 -367 -196 -333 -5 8 -9 48 -9 90 l0 76 106 117
c59 64 108 115 110 113 2 -2 -3 -30 -11 -63z"/>
<path d="M3244 2883 c-141 -153 -263 -294 -271 -313 -13 -30 -14 -59 -4 -210
6 -96 14 -233 17 -304 5 -107 10 -132 25 -147 22 -22 58 -25 81 -6 27 21 495
534 514 562 16 25 16 45 5 308 -6 155 -14 297 -16 316 -5 43 -31 71 -66 71
-24 0 -66 -41 -285 -277z m241 -153 l7 -209 -188 -204 -189 -204 -6 41 c-3 22
-9 116 -13 208 l-6 166 187 205 c104 113 191 206 194 206 4 1 10 -93 14 -209z"/>
<path d="M4388 2948 c-27 -23 -495 -534 -512 -561 -10 -14 -18 -47 -19 -74 -2
-89 24 -538 33 -574 10 -38 47 -63 76 -52 28 10 526 556 542 593 13 30 13 55
4 180 -7 80 -14 216 -18 304 -5 137 -9 161 -25 177 -22 22 -58 25 -81 7z m-5
-501 l4 -128 -191 -207 -191 -207 -6 100 c-4 55 -8 150 -10 211 l-2 111 189
206 189 206 7 -82 c3 -45 8 -140 11 -210z"/>
<path d="M906 2848 c-14 -13 -93 -97 -175 -187 -170 -186 -173 -191 -119 -269
87 -128 265 -332 289 -332 20 0 113 79 129 110 9 17 -14 634 -25 661 -6 15
-45 39 -65 39 -5 0 -20 -10 -34 -22z m-3 -460 c4 -87 3 -158 -1 -157 -15 1
-184 218 -180 230 2 4 39 47 83 95 l80 88 6 -50 c4 -27 9 -120 12 -206z"/>
<path d="M5152 2633 c-341 -365 -412 -447 -423 -485 -7 -27 -7 -74 0 -151 5
-62 13 -193 17 -291 6 -170 8 -181 30 -203 25 -25 51 -29 74 -10 9 7 129 135
268 285 205 222 254 281 263 314 8 31 8 72 0 153 -6 60 -13 191 -17 289 -6
170 -8 181 -30 203 -13 13 -32 23 -43 23 -12 0 -64 -48 -139 -127z m92 -225
c3 -68 7 -162 7 -210 l2 -86 -189 -206 -189 -206 -6 93 c-4 50 -9 145 -12 210
l-5 118 186 204 c103 112 190 204 193 204 4 1 9 -54 13 -121z"/>
<path d="M1824 2660 c-35 -13 -527 -556 -542 -598 -11 -29 -11 -65 -3 -172 6
-74 13 -206 17 -293 6 -135 10 -161 26 -182 23 -29 58 -32 86 -7 11 9 130 137
265 284 284 308 274 290 258 457 -6 58 -13 187 -17 286 -6 186 -13 217 -51
227 -10 3 -28 2 -39 -2z m-26 -530 l1 -115 -187 -203 -187 -202 -6 77 c-4 43
-9 137 -12 209 l-6 131 192 209 192 208 6 -99 c4 -55 7 -152 7 -215z"/>
<path d="M6047 2458 c-294 -316 -410 -445 -419 -468 -10 -25 8 -548 21 -619 4
-20 17 -42 32 -54 23 -17 29 -17 51 -5 35 19 517 545 536 585 14 30 15 52 4
196 -7 89 -12 198 -13 242 0 132 -13 216 -34 231 -40 30 -60 18 -178 -108z
m96 -356 l6 -164 -186 -201 c-103 -111 -190 -203 -193 -205 -6 -2 -20 248 -20
365 l0 53 188 203 187 203 6 -45 c4 -25 9 -119 12 -209z"/>
<path d="M2658 2348 c-9 -7 -128 -135 -266 -285 -168 -182 -254 -284 -262
-308 -9 -26 -9 -71 -1 -178 6 -78 13 -211 17 -296 6 -144 8 -156 30 -178 13
-13 32 -23 43 -23 14 0 104 91 277 278 141 152 263 287 271 299 20 29 20 80 3
398 -13 247 -15 261 -37 282 -25 26 -51 29 -75 11z m-15 -345 c4 -71 7 -165 7
-209 l0 -81 -187 -204 -188 -203 -6 69 c-4 39 -8 133 -10 211 l-4 140 185 202
c102 111 188 202 191 202 3 0 9 -57 12 -127z"/>
<path d="M3548 2168 c-26 -21 -495 -534 -513 -561 -8 -14 -16 -44 -17 -68 -3
-84 23 -544 32 -580 10 -38 47 -63 76 -52 28 10 526 556 541 593 13 30 14 58
4 200 -6 91 -14 227 -17 304 -5 117 -9 141 -25 157 -22 22 -58 25 -81 7z m-5
-485 l5 -142 -191 -208 -192 -208 -6 110 c-4 61 -8 156 -9 212 l-2 102 188
205 189 205 6 -67 c4 -37 9 -131 12 -209z"/>
<path d="M4411 1932 c-197 -205 -478 -519 -490 -545 -11 -26 -11 -69 -1 -252
22 -399 21 -395 51 -418 16 -12 34 -17 46 -13 22 7 520 544 542 584 12 22 12
69 2 302 -15 343 -17 356 -44 375 -35 25 -58 18 -106 -33z m23 -387 l8 -205
-44 -48 c-24 -27 -108 -119 -188 -206 l-145 -157 -6 38 c-4 21 -10 115 -13
208 l-7 170 187 203 c103 111 190 202 194 202 4 0 10 -92 14 -205z"/>
<path d="M5324 1767 c-26 -15 -514 -541 -532 -572 -10 -19 -10 -70 -1 -257 6
-128 15 -240 20 -250 5 -9 28 -26 52 -37 l44 -21 86 35 c83 35 90 41 249 201
90 90 171 179 180 197 16 30 17 53 4 347 -7 173 -17 322 -20 331 -4 9 -18 21
-32 28 -29 13 -24 13 -50 -2z m-20 -443 l7 -191 -72 -79 c-146 -160 -233 -243
-270 -260 -22 -9 -41 -15 -43 -13 -2 2 -7 85 -10 184 l-6 180 187 202 c144
155 189 198 194 185 3 -9 9 -103 13 -208z"/>
<path d="M1804 1608 c-144 -149 -315 -339 -326 -363 -9 -19 -8 -29 5 -49 31
-46 375 -276 414 -276 28 0 70 51 84 103 7 25 9 72 5 117 -4 41 -11 171 -16
289 -7 179 -12 216 -26 232 -33 36 -64 24 -140 -53z m49 -360 c2 -87 1 -158
-3 -158 -5 0 -56 32 -115 70 l-107 71 74 80 c40 44 86 96 103 115 l30 35 6
-28 c4 -15 9 -99 12 -185z"/>
<path d="M2685 1338 c-110 -107 -453 -492 -458 -514 -6 -36 16 -60 91 -95 37
-18 123 -62 192 -100 164 -88 174 -90 233 -42 84 70 89 81 88 191 -1 53 -6
201 -11 327 -10 228 -10 230 -36 253 -35 31 -49 28 -99 -20z m15 -399 c9 -203
9 -204 -13 -227 l-23 -22 -136 73 -136 72 145 158 c80 87 148 156 150 153 2
-2 8 -95 13 -207z"/>
<path d="M3622 1173 c-7 -3 -123 -124 -258 -270 -257 -278 -270 -297 -226
-336 27 -25 277 -79 445 -97 98 -10 134 -1 143 35 3 12 -1 159 -8 328 -14 324
-15 328 -63 340 -11 3 -26 3 -33 0z m-32 -276 c0 -30 3 -109 7 -175 l6 -122
-34 0 c-58 0 -260 42 -256 53 5 15 260 296 270 296 4 1 7 -23 7 -52z"/>
<path d="M4498 958 c-26 -22 -264 -283 -283 -311 -23 -36 -13 -72 28 -94 39
-22 228 -25 294 -5 76 23 77 24 69 211 -7 183 -15 211 -64 211 -16 0 -35 -6
-44 -12z m-18 -252 c0 -44 0 -44 -41 -51 -22 -4 -42 -5 -44 -3 -4 4 73 98 81
98 2 0 4 -20 4 -44z"/>
<path d="M4955 5939 c-117 -18 -140 -19 -229 -8 -93 12 -99 11 -112 -6 -22
-29 -17 -72 9 -89 58 -37 208 -46 367 -21 218 34 295 13 372 -100 24 -35 50
-65 58 -68 26 -7 60 11 72 39 10 22 9 32 -12 71 -38 72 -105 139 -168 169 -75
36 -180 40 -357 13z"/>
<path d="M4807 7108 c-173 -195 -248 -285 -253 -306 -9 -33 20 -72 55 -72 23
0 51 27 184 181 165 190 176 210 137 249 -33 33 -55 24 -123 -52z"/>
</g>
</svg>
